# xmcd CD database file
#
# Track frame offsets:
#	150
#	15356
#	30129
#	54639
#	66307
#	92030
#	105365
#	126380
#	137280
#	151273
#	165219
#	189727
#
# Disc length: 2587 seconds
#
# Revision: 3
# Processed by: cddbd v1.5.2PL0 Copyright (c) Steve Scherf et al.
# Submitted via: CDex 1.51
#
DISCID=880a190c
DTITLE=D¿em - Akustycznie - suplement
DYEAR=1994
DGENRE=Blues
TTITLE0=Harley moj
TTITLE1=Kiepska gra
TTITLE2=Autsajder
TTITLE3=Po co?
TTITLE4=Naiwne pytania
TTITLE5=Cala w trawie
TTITLE6=Taniec smierci
TTITLE7=Koszmarna noc
TTITLE8=Czlowieku co sie z toba dzieje
TTITLE9=Sen o Victorii
TTITLE10=Whisky
TTITLE11=Modlitwa III (pozwol mi)
EXTD=YEAR: 1994
EXTT0=
EXTT1=
EXTT2=
EXTT3=
EXTT4=
EXTT5=
EXTT6=
EXTT7=
EXTT8=
EXTT9=
EXTT10=
EXTT11=
PLAYORDER=
